# xmcd CD database file
#
# Track frame offsets:
#	150
#	33900
#	52200
#	84000
#	127950
#	151400
#
# Disc length: 2329 seconds
#
# Revision: 0
# Processed by: cddbd v1.5PL3 Copyright (c) Steve Scherf et al.
# Submitted via: CDex 1.50beta8
#
DISCID=3f091706
DTITLE=工画堂 - 蒼い海のトリスティア スペシャルドラマCD
DYEAR=2003
DGENRE=Game
TTITLE0=episode01 工業化の世紀
TTITLE1=episode02 スタァ誕生
TTITLE2=episode03 文化人訪問
TTITLE3=episode04 諦めない機械
TTITLE4=bonus track 05:「私だけのsoleil」
TTITLE5=bonus track 06:「私だけのsoleil」(KARAOKE)
EXTD=YEAR: 2003
EXTT0=
EXTT1=
EXTT2=
EXTT3=
EXTT4=
EXTT5=
PLAYORDER=
